# AST/ASF file generated using VICON BodyLanguage
# -----------------------------------------------
:version 1.10
:name VICON
:units
  mass 1.0
  length 0.45
  angle deg
:documentation
   .ast/.asf automatically generated from VICON data using
   VICON BodyBuilder and BodyLanguage model FoxedUp or BRILLIANT.MOD
:root
   order TX TY TZ RX RY RZ
   axis XYZ
   position 0 0 0  
   orientation 0 0 0 
:bonedata
  begin
     id 1 
     name lhipjoint
     direction 0.714689 -0.624256 0.315473 
     length 2.45343 
     axis 0 0 0  XYZ
  end
  begin
     id 2 
     name lfemur
     direction 0.34202 -0.939693 0  
     length 6.59069  
     axis 0 0 20  XYZ
    dof rx ry rz
    limits (-160.0 20.0)
           (-70.0 70.0)
           (-60.0 70.0)
  end
  begin
     id 3 
     name ltibia
     direction 0.34202 -0.939693 0   
     length 6.73476   
     axis 0 0 20   XYZ
    dof rx
    limits (-10.0 170.0)
  end
  begin
     id 4 
     name lfoot
     direction 0.0718085 -0.197292 0.977711   
     length 1.52607   
     axis -90 7.62852e-016 20   XYZ
    dof rx rz
    limits (-45.0 90.0)
           (-70.0 20.0)
  end
  begin
     id 5 
     name ltoes
     direction 1.53553e-011 -4.22024e-011 1   
     length 0.777832   
     axis -90 7.62852e-016 20   XYZ
    dof rx
    limits (-90.0 20.0)
  end
  begin
     id 6 
     name rhipjoint
     direction -0.727419 -0.612432 0.309497   
     length 2.50079  
     axis 0 0 0  XYZ 
  end
  begin
     id 7 
     name rfemur
     direction -0.34202 -0.939693 0   
     length 6.51665   
     axis 0 0 -20   XYZ
    dof rx ry rz
    limits (-160.0 20.0)
           (-70.0 70.0)
           (-70.0 60.0)
  end
  begin
     id 8 
     name rtibia
     direction -0.34202 -0.939693 0   
     length 6.48919   
     axis 0 0 -20   XYZ
    dof rx
    limits (-10.0 170.0)
 end
 begin
     id 9 
     name rfoot
     direction -0.112205 -0.308282 0.944655   
     length 1.68717  
     axis -90 -7.62852e-016 -20   XYZ
    dof rx rz
    limits (-45.0 90.0)
           (-20.0 70.0)
  end
  begin
     id 10 
     name rtoes
     direction -1.53583e-011 -4.21993e-011 1   
     length 0.846859   
     axis -90 -7.62852e-016 -20   XYZ
    dof rx
    limits (-90.0 20.0)
  end
  begin
     id 11 
     name lowerback
     direction -0.00119603 0.996364 -0.0851956   
     length 1.67242   
     axis 0 0 0   XYZ
    dof rx ry rz
    limits (-20.0 45.0)
           (-30.0 30.0)
           (-30.0 30.0)
  end
  begin
     id 12 
     name upperback
     direction -0.00531001 0.998318 0.0577248   
     length 1.64819   
     axis 0 0 0   XYZ
    dof rx ry rz
    limits (-20.0 45.0)
           (-30.0 30.0)
           (-30.0 30.0)
  end
  begin
     id 13 
     name thorax
     direction -0.00653676 0.995132 0.0983291   
     length 1.67429   
     axis 0 0 0   XYZ
    dof rx ry rz
    limits (-20.0 45.0)
           (-30.0 30.0)
           (-30.0 30.0)
  end
  begin
     id 14 
     name lowerneck
     direction 0.0141424 0.999886 0.00525412   
     length 1.59623   
     axis 0 0 0   XYZ
    dof rx ry rz
    limits (-20.0 45.0)
           (-30.0 30.0)
           (-30.0 30.0)
  end
  begin
     id 15 
     name upperneck
     direction -0.0640064 0.987178 -0.146232   
     length 1.59576   
     axis 0 0 0   XYZ
    dof rx ry rz
    limits (-20.0 45.0)
           (-30.0 30.0)
           (-30.0 30.0)
  end
  begin
     id 16
     name head
     direction -0.0222942 0.998496 -0.0500859  
     length 1.60959  
     axis 0 0 0   XYZ
    dof rx ry rz
    limits (-20.0 45.0)
           (-30.0 30.0)
           (-30.0 30.0)
  end
  begin
     id 17 
     name lclavicle
     direction 0.908549 0.392612 0.142806  
     length 2.80649  
     axis 0 0 0   XYZ
    dof ry rz
    limits (-20.0 10.0)
           (0.0 20.0)
  end
  begin
     id 18 
     name lhumerus
     direction 1 -4.48968e-011 1.08832e-028   
     length 4.2884   
     axis -180 -30 -90   XYZ
    dof rx ry rz
    limits (-60.0 90.0)
           (-90.0 90.0)
           (-90.0 90.0)
  end
  begin
     id 19
     name lradius
     direction 1 -4.48952e-011 -3.02642e-028   
     length 3.06552   
     axis -180 -30 -90   XYZ
    dof rx
    limits (-10.0 170.0)
  end
  begin
     id 20
     name lwrist
     direction 1 -4.49014e-011 1.58672e-027   
     length 1.53276   
     axis -1.65735e-015 90 90   XYZ
    dof ry
    limits (-180.0 0.0)
 end
  begin
     id 21 
     name lhand
     direction 1 -4.48928e-011 3.17344e-027   
     length 0.753045   
     axis -2.02492e-015 90 90   XYZ
    dof rx rz
    limits (-90.0 90.0)
           (-45.0 45.0)
  end
  begin
     id 22 
     name lfingers
     direction 1 -4.48958e-011 6.34687e-027   
     length 0.607124   
     axis -4.04985e-015 90 90   XYZ
    dof rx
    limits (0.0 90.0)
  end
  begin
     id 23
     name lthumb
     direction 0.707107 -6.34905e-011 0.707107   
     length 0.871712   
     axis -90 45 2.85299e-015   XYZ
    dof rx rz
    limits (-45.0 45.0)
           (-45.0 45.0)
  end
  begin
     id 24 
     name rclavicle
     direction -0.885098 0.45949 0.0739604   
     length 2.9478  
     axis 0 0 0   XYZ 
    dof ry rz
    limits (-10.0 20.0)
           (-20.0 0.0)
  end
  begin
     id 25 
     name rhumerus
     direction -1 -4.4898e-011 -2.61739e-027  
     length 4.52172   
     axis -180 30 90   XYZ
    dof rx ry rz
    limits (-90.0 60.0)
           (-90.0 90.0)
           (-90.0 90.0)
  end
  begin
     id 26 
     name rradius
     direction -1 -4.48945e-011 9.02552e-028   
     length 2.8914   
     axis -180 30 90   XYZ
    dof rx
    limits (-10.0 170.0)
  end
  begin
     id 27 
     name rwrist
     direction -1 -4.49018e-011 1.58672e-027   
     length 1.4457   
     axis -1.65735e-015 -90 -90   XYZ
    dof ry
    limits (-180.0 0.0)
  end
  begin
     id 28
     name rhand
     direction -1 -4.48825e-011 3.17344e-027   
     length 0.680541   
     axis -2.02492e-015 -90 -90   XYZ
    dof rx rz
    limits (-90.0 90.0)
           (-45.0 45.0)
  end
  begin
     id 29
     name rfingers
     direction -1 -4.49067e-011 6.34687e-027   
     length 0.54867   
     axis -4.04985e-015 -90 -90   XYZ
    dof rx
    limits (0.0 90.0)
  end
  begin
     id 30
     name rthumb
     direction -0.707107 -6.34833e-011 0.707107   
     length 0.787783   
     axis -90 -45 -2.85299e-015   XYZ
    dof rx rz
    limits (-45.0 45.0)
           (-45.0 45.0)
  end
:hierarchy
  begin
    root lhipjoint rhipjoint lowerback
    lhipjoint lfemur
    lfemur ltibia
    ltibia lfoot
    lfoot ltoes
    rhipjoint rfemur
    rfemur rtibia
    rtibia rfoot
    rfoot rtoes
    lowerback upperback
    upperback thorax
    thorax lowerneck lclavicle rclavicle
    lowerneck upperneck
    upperneck head
    lclavicle lhumerus
    lhumerus lradius
    lradius lwrist
    lwrist lhand lthumb
    lhand lfingers
    rclavicle rhumerus
    rhumerus rradius
    rradius rwrist
    rwrist rhand rthumb
    rhand rfingers
  end

#!OML:ASF E:\emotionWalksFemale\Project 1\Capture day 1\Session 1\Female1.ASF
:FULLY-SPECIFIED
:DEGREES
64
root 8.45087 15.5312 23.0314 -179.671 0.415391 -179.708
lowerback 4.7633 1.26847 1.24817
upperback -4.53532 1.92955 -0.0272162
thorax -7.37447 0.934842 -0.948181
lowerneck -7.09439 -1.57465 -4.9024
upperneck 15.8901 -2.7733 4.52711
head 6.09948 -1.52022 2.01856
rclavicle -8.48251e-015 -1.63997e-015
rhumerus -47.6114 17.9013 -100.086
rradius 34.1109
rwrist 22.9089
rhand -1.32714 -50.2255
rfingers 7.12502
rthumb -155.681 -258.703
lclavicle -8.48251e-015 -1.63997e-015
lhumerus -44.851 -10.144 94.7867
lradius 36.1215
lwrist -11.0306
lhand -0.813225 -38.3235
lfingers 7.12502
lthumb 24.8112 -9.91311
rfemur 1.45644 16.8987 27.0561
rtibia 14.1648
rfoot -17.2607 -31.0449
rtoes 4.92051
lfemur -4.25185 -20.9292 -25.4702
ltibia 20.5453
lfoot -20.8853 18.8812
ltoes -19.5297
65
root 8.45004 15.5302 23.0316 -179.726 0.412153 -179.758
lowerback 4.80584 1.24945 1.19964
upperback -4.5288 1.89986 -0.021524
thorax -7.39455 0.922298 -0.912886
lowerneck -7.06311 -1.57432 -4.90438
upperneck 15.8398 -2.76034 4.47474
head 6.07706 -1.51693 2.00344
rclavicle -7.91722e-015 -1.61513e-015
rhumerus -47.6571 17.9192 -100.08
rradius 34.1527
rwrist 22.8691
rhand -1.37657 -50.2729
rfingers 7.12502
rthumb -155.729 -258.757
lclavicle -7.91722e-015 -1.61513e-015
lhumerus -44.8881 -10.0835 94.7907
lradius 36.1767
lwrist -10.9601
lhand -0.679391 -38.521
lfingers 7.12502
lthumb 24.9395 -10.1283
rfemur 1.51011 16.8874 27.0073
rtibia 14.1756
rfoot -17.3397 -30.9929
rtoes 5.177
lfemur -4.18048 -20.9801 -25.5627
ltibia 20.5448
lfoot -20.9293 18.9364
ltoes -19.5548
66
root 8.44987 15.5307 23.0326 -179.713 0.415217 -179.781
lowerback 4.78695 1.23155 1.1789
upperback -4.54548 1.87519 -0.0251748
thorax -7.40248 0.911624 -0.902226
lowerneck -6.97755 -1.5696 -4.87531
upperneck 15.7701 -2.75048 4.43038
head 6.03887 -1.51415 1.98579
rclavicle 3.48153e-014 2.75814e-015
rhumerus -47.6355 17.8581 -100.061
rradius 34.1282
rwrist 22.8921
rhand -1.28499 -50.1835
rfingers 7.12502
rthumb -155.641 -258.655
lclavicle 3.48153e-014 2.75814e-015
lhumerus -44.9212 -10.0475 94.7863
lradius 36.1269
lwrist -11.0731
lhand -0.93034 -38.6478
lfingers 7.12502
lthumb 24.699 -10.222
rfemur 1.48883 16.8788 26.9709
rtibia 14.1591
rfoot -17.34 -30.9631
rtoes 5.39126
lfemur -4.21038 -20.9824 -25.579
ltibia 20.5566
lfoot -20.972 18.9449
ltoes -19.1972
67
root 8.44911 15.531 23.0342 -179.666 0.443763 -179.768
lowerback 4.74486 1.22671 1.20744
upperback -4.57364 1.8729 -0.0316092
thorax -7.40718 0.909759 -0.92413
lowerneck -7.00525 -1.57076 -4.85012
upperneck 15.8493 -2.76043 4.41587
head 6.06855 -1.5207 1.97598
rclavicle -3.40419e-015 -8.94531e-015
rhumerus -47.5594 17.7339 -99.9828
rradius 34.1079
rwrist 23.1684
rhand -0.899118 -50.2075
rfingers 7.12502
rthumb -155.271 -258.629
lclavicle -3.40419e-015 -8.94531e-015
lhumerus -44.9349 -10.0586 94.7826
lradius 36.0879
lwrist -11.0879
lhand -1.1005 -38.642
lfingers 7.12502
lthumb 24.5359 -10.194
rfemur 1.45189 16.8665 26.9605
rtibia 14.1179
rfoot -17.3725 -30.9292
rtoes 5.61059
lfemur -4.29271 -20.963 -25.5389
ltibia 20.5868
lfoot -20.9873 18.9075
ltoes -18.732
68
root 8.44831 15.5315 23.0354 -179.648 0.453293 -179.717
lowerback 4.73565 1.21965 1.2685
upperback -4.5917 1.87127 -0.0143605
thorax -7.42004 0.906701 -0.940226
lowerneck -7.04378 -1.56375 -4.87198
upperneck 15.9169 -2.75651 4.43945
head 6.09687 -1.51964 1.98712
rclavicle 8.55706e-015 2.01269e-015
rhumerus -47.4751 17.6755 -99.9166
rradius 34.0635
rwrist 23.2934
rhand -0.725602 -50.1713
rfingers 7.12502
rthumb -155.105 -258.57
lclavicle 8.55706e-015 2.01269e-015
lhumerus -44.9491 -10.0433 94.7873
lradius 36.0792
lwrist -11.0357
lhand -1.17554 -38.717
lfingers 7.12502
lthumb 24.4639 -10.2592
rfemur 1.46703 16.8409 27.0079
rtibia 14.0604
rfoot -17.2739 -30.903
rtoes 5.70902
lfemur -4.33791 -20.9157 -25.4735
ltibia 20.635
lfoot -20.9963 18.8467
ltoes -18.7741
69
root 8.44885 15.5319 23.0357 -179.647 0.448166 -179.677
lowerback 4.72085 1.2118 1.30774
upperback -4.59223 1.86521 0.00186096
thorax -7.41154 0.902388 -0.944148
lowerneck -6.99848 -1.55673 -4.91256
upperneck 15.8562 -2.74507 4.4784
head 6.07027 -1.51303 2.00743
rclavicle -8.88319e-016 3.23025e-016
rhumerus -47.4804 17.777 -99.9801
rradius 34.1006
rwrist 22.9654
rhand -0.728824 -50.268
rfingers 7.12502
rthumb -155.108 -258.667
lclavicle -8.88319e-016 3.23025e-016
lhumerus -44.9448 -9.99989 94.77
lradius 36.0465
lwrist -11.0334
lhand -1.33063 -38.8229
lfingers 7.12502
lthumb 24.3153 -10.3451
rfemur 1.48803 16.8505 27.0623
rtibia 14.0174
rfoot -17.0593 -30.9234
rtoes 5.62655
lfemur -4.35951 -20.8583 -25.4229
ltibia 20.6839
lfoot -21.0529 18.7867
ltoes -19.1238
70
root 8.45025 15.5307 23.0355 -179.69 0.461423 -179.673
lowerback 4.72965 1.22739 1.30457
upperback -4.56945 1.88314 -0.00884335
thorax -7.39154 0.910559 -0.955267
lowerneck -7.01885 -1.58078 -4.92276
upperneck 15.851 -2.78197 4.52287
head 6.0747 -1.52757 2.02035
rclavicle -6.74625e-015 -2.16178e-015
rhumerus -47.5308 17.8669 -100.073
rradius 34.1956
rwrist 22.7042
rhand -0.707979 -50.4875
rfingers 7.12502
rthumb -155.088 -258.884
lclavicle -6.74625e-015 -2.16178e-015
lhumerus -44.9383 -10.0628 94.7734
lradius 36.0264
lwrist -10.9706
lhand -1.34246 -38.7994
lfingers 7.12502
lthumb 24.3039 -10.3201
rfemur 1.54468 16.8929 27.0914
rtibia 14.0065
rfoot -17.0243 -30.9509
rtoes 5.49666
lfemur -4.32505 -20.8219 -25.4291
ltibia 20.7111
lfoot -21.0665 18.8024
ltoes -19.4928
71
root 8.45015 15.5294 23.037 -179.738 0.479359 -179.696
lowerback 4.78729 1.2447 1.28575
upperback -4.56355 1.90259 -0.0332063
thorax -7.41801 0.919462 -0.973855
lowerneck -7.05727 -1.59612 -4.93905
upperneck 15.8722 -2.81459 4.607
head 6.09086 -1.53806 2.04709
rclavicle 1.81018e-014 6.06293e-015
rhumerus -47.5214 17.8203 -100.081
rradius 34.1705
rwrist 22.7743
rhand -0.785346 -50.5056
rfingers 7.12502
rthumb -155.162 -258.912
lclavicle 1.81018e-014 6.06293e-015
lhumerus -44.9269 -10.1448 94.8076
lradius 36.0102
lwrist -10.8804
lhand -1.31403 -38.6514
lfingers 7.12502
lthumb 24.3312 -10.1758
rfemur 1.5788 16.8859 27.0744
rtibia 14.0337
rfoot -17.037 -30.9297
rtoes 5.28704
lfemur -4.27138 -20.843 -25.4775
ltibia 20.7042
lfoot -21.0371 18.8662
ltoes -19.2459
72
root 8.4493 15.5292 23.0404 -179.725 0.457471 -179.744
lowerback 4.84046 1.2282 1.24292
upperback -4.60338 1.879 -0.0506288
thorax -7.49292 0.909461 -0.967932
lowerneck -6.9849 -1.58884 -4.91127
upperneck 15.8378 -2.81277 4.61201
head 6.06699 -1.53682 2.04463
rclavicle -6.98852e-016 -6.41081e-015
rhumerus -47.5567 17.7566 -100.068
rradius 34.1686
rwrist 22.8613
rhand -0.842099 -50.4948
rfingers 7.12502
rthumb -155.216 -258.909
lclavicle -6.98852e-016 -6.41081e-015
lhumerus -44.9098 -10.1058 94.8073
lradius 35.9993
lwrist -10.7826
lhand -1.31294 -38.505
lfingers 7.12502
lthumb 24.3322 -10.0296
rfemur 1.52199 16.8513 27.0072
rtibia 14.0874
rfoot -17.0594 -30.895
rtoes 5.3996
lfemur -4.28088 -20.9017 -25.5278
ltibia 20.6765
lfoot -21.0001 18.8877
ltoes -19.1524
73
root 8.44896 15.5297 23.0428 -179.725 0.408024 -179.789
lowerback 4.87829 1.20989 1.20934
upperback -4.6376 1.85287 -0.073238
thorax -7.55252 0.897728 -0.971748
lowerneck -6.86078 -1.57525 -4.83487
upperneck 15.7973 -2.80782 4.58517
head 6.031 -1.5352 2.02449
rclavicle -9.19379e-016 -1.2921e-015
rhumerus -47.6231 17.745 -100.103
rradius 34.1966
rwrist 22.7898
rhand -0.853447 -50.5871
rfingers 7.12502
rthumb -155.227 -259.003
lclavicle -9.19379e-016 -1.2921e-015
lhumerus -44.9418 -10.0372 94.7699
lradius 36.002
lwrist -10.7571
lhand -1.29281 -38.4674
lfingers 7.12502
lthumb 24.3515 -9.99455
rfemur 1.49695 16.8289 26.9565
rtibia 14.123
rfoot -17.2067 -30.8956
rtoes 5.72922
lfemur -4.28272 -20.8816 -25.5731
ltibia 20.6611
lfoot -20.9352 18.8526
ltoes -19.4734
